<?xml version="1.0" encoding="UTF-8"?>
<!DOCTYPE svg PUBLIC "-//W3C//DTD SVG 1.1//EN" "http://www.w3.org/Graphics/SVG/1.1/DTD/svg11.dtd">
<svg version="1.1" xmlns="http://www.w3.org/2000/svg" xmlns:xlink="http://www.w3.org/1999/xlink" x="0px" y="0px" width="768" height="1024" viewBox="0, 0, 768, 1024">
  <g id="Layer 1">
    <path d="M12.5,102.852 L27.617,117.969 L73.25,117.969 L88.367,102.852 L88.367,74.656 L78.945,65.234 L88.367,55.812 L88.367,27.617 L73.25,12.5 L27.617,12.5 L12.5,27.617 L12.5,55.812 L21.922,65.234 L12.5,74.656 z M30.641,36.758 L36.758,30.641 L64.109,30.641 L70.227,36.758 L70.227,50.047 L64.109,56.164 L36.758,56.164 L30.641,50.047 z M30.641,80.422 L36.758,74.305 L64.109,74.305 L70.227,80.422 L70.227,93.711 L64.109,99.828 L36.758,99.828 L30.641,93.711 z M103.906,12.5 L174.148,12.5 L174.148,30.641 L148.062,30.641 L148.062,117.969 L129.922,117.969 L129.922,30.641 L103.906,30.641 z M189.758,117.969 L207.898,117.969 L207.898,74.305 L231.312,74.305 L246.43,117.969 L265.695,117.969 L250.508,74.305 L265.625,59.188 L265.625,27.617 L250.508,12.5 L189.758,12.5 z M207.898,30.641 L241.367,30.641 L247.484,36.758 L247.484,50.047 L241.367,56.164 L207.898,56.164 z M276.523,117.969 L307.953,12.5 L330.594,12.5 L361.953,117.969 L343.109,117.969 L336.078,94.695 L302.328,94.695 L295.438,117.969 z M307.531,76.555 L330.875,76.555 L319.203,37.391 z M452.305,117.969 L431.703,117.969 L397.602,71.141 L391.062,78.102 L391.062,117.969 L372.992,117.969 L372.992,12.5 L391.062,12.5 L391.062,53.422 L429.805,12.5 L452.305,12.5 L410.539,57.148 z" fill-opacity="0" stroke="#FFFFFF" stroke-width="1"/>
  </g>
  <defs/>
</svg>
